<svg width="64" height="64" viewBox="0 0 64 64" fill="none" xmlns="http://www.w3.org/2000/svg">
<g clip-path="url(#clip0_1_3304)">
<mask id="mask0_1_3304" style="mask-type:luminance" maskUnits="userSpaceOnUse" x="0" y="0" width="64" height="64">
<path d="M64 0H0V64H64V0Z" fill="white"/>
</mask>
<g mask="url(#mask0_1_3304)">
<path d="M57.8803 30.1198L33.8803 6.11984C32.8403 5.07984 31.147 5.07984 30.1203 6.11984L6.12033 30.1198C5.08033 31.1598 5.08033 32.8532 6.12033 33.8932L30.1203 57.8798V57.8932C31.1603 58.9332 32.8536 58.9332 33.8936 57.8932L57.8936 33.8932C58.9336 32.8398 58.9336 31.1598 57.8803 30.1198ZM37.3336 38.6665V31.9998H26.667V39.9998H21.3336V29.3332C21.3336 27.8532 22.5203 26.6665 24.0003 26.6665H37.3336V19.9998L46.667 29.3332L37.3336 38.6665Z" fill="#FFF5E3"/>
</g>
<path d="M63.5 0.5H0.5V63.5H63.5V0.5Z" stroke="#ED5722" stroke-opacity="0.01"/>
</g>
<defs>
<clipPath id="clip0_1_3304">
<rect width="64" height="64" fill="white"/>
</clipPath>
</defs>
</svg>
