<svg width="64" height="64" viewBox="0 0 64 64" fill="none" xmlns="http://www.w3.org/2000/svg">
<g clip-path="url(#clip0_1_3384)">
<path d="M63.5 0.5H0.5V63.5H63.5V0.5Z" stroke="#ED5722" stroke-opacity="0.01"/>
<path d="M3.02393 14.998H9.02393V48.998H3.02393V14.998Z" fill="#792D12"/>
<path d="M3.03027 33.9082L9.00024 34" stroke="#FFF5E3" stroke-linejoin="round"/>
<path d="M32.5057 50.3904C42.765 50.3904 51.0817 42.1569 51.0817 32.0005C51.0817 21.844 42.765 13.6104 32.5057 13.6104C22.2465 13.6104 13.9297 21.844 13.9297 32.0005C13.9297 42.1569 22.2465 50.3904 32.5057 50.3904Z" fill="#FFF5E3"/>
<path d="M55.126 15.0479H60.976V25.0439H55.126V15.0479ZM55.992 25.074H59.992V48H55.992V25.074Z" fill="#ED5722"/>
<path d="M32.5058 45.3335C29.664 45.3333 26.8951 44.4432 24.5952 42.7908C22.2954 41.1383 20.5826 38.8079 19.7018 36.1333C18.8208 33.459 18.8168 30.5775 19.6905 27.9009C20.5641 25.2242 22.2706 22.8898 24.5658 21.2314M45.0178 31.4614C45.3458 32.675 45.4191 33.9423 45.2334 35.185C45.0476 36.4278 44.6067 37.6199 43.9378 38.6875C43.269 39.7556 42.3862 40.6766 41.344 41.3938C40.3017 42.111 39.122 42.6091 37.8778 42.8574" stroke="#ED5722" stroke-linecap="round" stroke-linejoin="round"/>
</g>
<defs>
<clipPath id="clip0_1_3384">
<rect width="64" height="64" fill="white"/>
</clipPath>
</defs>
</svg>
