<svg width="64" height="64" viewBox="0 0 64 64" fill="none" xmlns="http://www.w3.org/2000/svg">
<g clip-path="url(#clip0_1_3181)">
<path d="M63.5 0.5H0.5V63.5H63.5V0.5Z" stroke="#ED5722" stroke-opacity="0.01"/>
<path d="M55 29.5C59.4183 29.5 63 26.8137 63 23.5C63 20.1863 59.4183 17.5 55 17.5C50.5817 17.5 47 20.1863 47 23.5C47 26.8137 50.5817 29.5 55 29.5Z" fill="#FFF5E3"/>
<path d="M22 62C33.0457 62 42 53.0457 42 42C42 30.9543 33.0457 22 22 22C10.9543 22 2 30.9543 2 42C2 53.0457 10.9543 62 22 62Z" fill="white"/>
<path d="M20.5397 41.1198L29.0997 37.6998C30.229 37.2535 31.444 37.0659 32.6553 37.1507C33.8666 37.2355 35.0436 37.5906 36.0997 38.1898L36.8497 38.6098C36.9847 38.688 37.0945 38.803 37.1664 38.9414C37.2383 39.0798 37.2693 39.2358 37.2556 39.3912C37.242 39.5465 37.1843 39.6948 37.0894 39.8185C36.9945 39.9423 36.8662 40.0364 36.7197 40.0898L26.9997 43.5598L24.6297 50.6798C24.3644 51.4834 23.9026 52.2081 23.2861 52.7879C22.6696 53.3676 21.9181 53.7842 21.0997 53.9998C21.0369 54.0164 20.9711 54.0175 20.9078 54.003C20.8445 53.9884 20.7857 53.9587 20.7365 53.9164C20.6873 53.8741 20.6491 53.8204 20.6253 53.76C20.6014 53.6996 20.5927 53.6343 20.5997 53.5698L21.3597 45.1898L14.2997 48.1198C13.5591 48.4281 12.7306 48.4516 11.9736 48.1858C11.2167 47.92 10.5849 47.3835 10.1997 46.6798L7.04966 40.9098C7.0147 40.8473 6.99675 40.7766 6.99759 40.705C6.99844 40.6333 7.01805 40.5631 7.05447 40.5014C7.09089 40.4397 7.14285 40.3886 7.20517 40.3532C7.26749 40.3179 7.338 40.2994 7.40965 40.2998H8.28965C9.36886 40.302 10.4037 40.7296 11.1697 41.4898L13.2297 43.5598L20.5397 41.1198Z" fill="#ED5722"/>
<path d="M21.0001 40.9306L14.8401 37.5006C14.773 37.4603 14.7188 37.4016 14.6839 37.3315C14.6491 37.2614 14.6351 37.1828 14.6435 37.105C14.6519 37.0272 14.6824 36.9534 14.7314 36.8924C14.7804 36.8313 14.8459 36.7856 14.9201 36.7606L15.6901 36.5006C17.7788 35.8049 20.0416 35.8366 22.1101 36.5906L27.2201 38.4406L21.0001 40.9306Z" fill="#792D12"/>
<path d="M55.0001 0.999734C56.098 0.963637 57.1881 1.19644 58.1755 1.67789C59.1629 2.15935 60.0177 2.87485 60.6654 3.76211C61.3131 4.64937 61.7341 5.68151 61.8918 6.76866C62.0494 7.8558 61.939 8.96502 61.5701 9.99971L55.0001 24.9997L48.4301 9.99971C48.0611 8.96502 47.9507 7.8558 48.1084 6.76866C48.266 5.68151 48.6871 4.64937 49.3348 3.76211C49.9825 2.87485 50.8372 2.15935 51.8246 1.67789C52.812 1.19644 53.9021 0.963637 55.0001 0.999734Z" fill="#792D12"/>
<path d="M19 24C19 25.78 18.4722 27.5201 17.4832 29.0001C16.4943 30.4802 15.0887 31.6337 13.4442 32.3149C11.7996 32.9961 9.99002 33.1743 8.24419 32.8271C6.49836 32.4798 4.89472 31.6226 3.63604 30.364C2.37737 29.1053 1.5202 27.5016 1.17294 25.7558C0.825669 24.01 1.0039 22.2004 1.68509 20.5558C2.36628 18.9113 3.51983 17.5057 4.99987 16.5168C6.47991 15.5278 8.21997 15 10 15C12.387 15 14.6761 15.9482 16.364 17.636C18.0518 19.3239 19 21.6131 19 24Z" fill="#FFF5E3"/>
<path d="M9.9599 24.5595C11.5118 24.5595 12.7699 23.3015 12.7699 21.7495C12.7699 20.1976 11.5118 18.9395 9.9599 18.9395C8.40798 18.9395 7.1499 20.1976 7.1499 21.7495C7.1499 23.3015 8.40798 24.5595 9.9599 24.5595Z" fill="#792D12"/>
<path d="M16.4502 30.2799C16.0827 28.8362 15.2538 27.5519 14.0896 26.6224C12.9254 25.6928 11.4895 25.1688 10.0002 25.1299C8.51102 25.1688 7.07516 25.6928 5.91096 26.6224C4.74675 27.5519 3.91787 28.8362 3.55029 30.2799C4.38894 31.1417 5.3918 31.8267 6.49962 32.2944C7.60745 32.7622 8.79777 33.0031 10.0002 33.0031C11.2028 33.0031 12.3931 32.7622 13.5009 32.2944C14.6087 31.8267 15.6116 31.1417 16.4502 30.2799Z" fill="#B5441B"/>
<path d="M51 54C51 55.78 50.4722 57.5201 49.4832 59.0001C48.4943 60.4802 47.0887 61.6337 45.4442 62.3149C43.7996 62.9961 41.99 63.1743 40.2442 62.8271C38.4984 62.4798 36.8947 61.6226 35.636 60.364C34.3774 59.1053 33.5202 57.5016 33.1729 55.7558C32.8257 54.01 33.0039 52.2004 33.6851 50.5559C34.3663 48.9113 35.5198 47.5057 36.9999 46.5168C38.4799 45.5278 40.22 45 42 45C44.387 45 46.6761 45.9482 48.364 47.636C50.0518 49.3239 51 51.6131 51 54Z" fill="#FFF5E3"/>
<path d="M41.9599 54.5595C43.5118 54.5595 44.7699 53.3015 44.7699 51.7495C44.7699 50.1976 43.5118 48.9395 41.9599 48.9395C40.408 48.9395 39.1499 50.1976 39.1499 51.7495C39.1499 53.3015 40.408 54.5595 41.9599 54.5595Z" fill="#792D12"/>
<path d="M48.4499 60.2797C48.1214 58.8141 47.3036 57.5041 46.1313 56.5654C44.9589 55.6267 43.5017 55.1152 41.9998 55.1152C40.498 55.1152 39.0408 55.6267 37.8684 56.5654C36.6961 57.5041 35.8783 58.8141 35.5498 60.2797C36.3885 61.1415 37.3914 61.8265 38.4992 62.2942C39.607 62.762 40.7973 63.0029 41.9998 63.0029C43.2024 63.0029 44.3927 62.762 45.5005 62.2942C46.6083 61.8265 47.6112 61.1415 48.4499 60.2797Z" fill="#B5441B"/>
<path d="M55 10.5C56.3807 10.5 57.5 9.38071 57.5 8C57.5 6.61929 56.3807 5.5 55 5.5C53.6193 5.5 52.5 6.61929 52.5 8C52.5 9.38071 53.6193 10.5 55 10.5Z" fill="white"/>
</g>
<defs>
<clipPath id="clip0_1_3181">
<rect width="64" height="64" fill="white"/>
</clipPath>
</defs>
</svg>
