<svg width="64" height="64" viewBox="0 0 64 64" fill="none" xmlns="http://www.w3.org/2000/svg">
<path d="M46.6683 59.9997C46.1883 59.9997 45.7243 59.7397 45.4856 59.2851L32.0003 33.5397L18.515 59.2851C18.1736 59.9371 17.371 60.1891 16.715 59.8477C16.063 59.5064 15.8096 58.7011 16.1523 58.0477L30.819 30.0477C31.2803 29.169 32.7203 29.169 33.1803 30.0477L47.8469 58.0477C48.1896 58.6997 47.9363 59.5051 47.2843 59.8477C47.087 59.9504 46.8763 59.9997 46.6683 59.9997Z" fill="#FFF5E3"/>
<path d="M32.0001 33.3333C33.4729 33.3333 34.6668 32.1394 34.6668 30.6667C34.6668 29.1939 33.4729 28 32.0001 28C30.5274 28 29.3335 29.1939 29.3335 30.6667C29.3335 32.1394 30.5274 33.3333 32.0001 33.3333Z" fill="white"/>
<path d="M31.9997 57.3333C17.2957 57.3333 5.33301 45.3707 5.33301 30.6667C5.33301 15.9627 17.2957 4 31.9997 4C46.7037 4 58.6664 15.9627 58.6664 30.6667C58.6664 45.3707 46.7037 57.3333 31.9997 57.3333ZM31.9997 6.66667C18.7664 6.66667 7.99968 17.4333 7.99968 30.6667C7.99968 43.9 18.7664 54.6667 31.9997 54.6667C45.233 54.6667 55.9997 43.9 55.9997 30.6667C55.9997 17.4333 45.233 6.66667 31.9997 6.66667Z" fill="#FFF5E3"/>
<path d="M34.6669 8.00032H29.3336C28.5976 8.00032 28.0003 7.40299 28.0003 6.66699V4.00032C28.0003 3.26432 28.5976 2.66699 29.3336 2.66699H34.6669C35.4029 2.66699 36.0003 3.26432 36.0003 4.00032V6.66699C36.0003 7.40299 35.4029 8.00032 34.6669 8.00032ZM34.6669 58.6669H29.3336C28.5976 58.6669 28.0003 58.0696 28.0003 57.3336V54.6669C28.0003 53.9309 28.5976 53.3336 29.3336 53.3336H34.6669C35.4029 53.3336 36.0003 53.9309 36.0003 54.6669V57.3336C36.0003 58.0696 35.4029 58.6669 34.6669 58.6669ZM60.0003 33.3336H54.6669C53.9309 33.3336 53.3336 32.7363 53.3336 32.0003V29.3336C53.3336 28.5976 53.9309 28.0003 54.6669 28.0003H60.0003C60.7363 28.0003 61.3336 28.5976 61.3336 29.3336V32.0003C61.3336 32.7363 60.7363 33.3336 60.0003 33.3336ZM9.33366 33.3336H4.00032C3.26432 33.3336 2.66699 32.7363 2.66699 32.0003V29.3336C2.66699 28.5976 3.26432 28.0003 4.00032 28.0003H9.33366C10.0696 28.0003 10.6669 28.5976 10.6669 29.3336V32.0003C10.6669 32.7363 10.0696 33.3336 9.33366 33.3336ZM21.3336 54.6669H16.0003C15.2643 54.6669 14.6669 54.0696 14.6669 53.3336V50.6669C14.6669 49.9309 15.2643 49.3336 16.0003 49.3336H21.3336C22.0696 49.3336 22.6669 49.9309 22.6669 50.6669V53.3336C22.6669 54.0696 22.0696 54.6669 21.3336 54.6669ZM12.0003 45.3336H6.66699C5.93099 45.3336 5.33365 44.7363 5.33365 44.0003V41.3336C5.33365 40.5976 5.93099 40.0003 6.66699 40.0003H12.0003C12.7363 40.0003 13.3336 40.5976 13.3336 41.3336V44.0003C13.3336 44.7363 12.7363 45.3336 12.0003 45.3336ZM42.6669 54.6669H48.0003C48.7363 54.6669 49.3336 54.0696 49.3336 53.3336V50.6669C49.3336 49.9309 48.7363 49.3336 48.0003 49.3336H42.6669C41.9309 49.3336 41.3336 49.9309 41.3336 50.6669V53.3336C41.3336 54.0696 41.9309 54.6669 42.6669 54.6669ZM52.0003 45.3336H57.3336C58.0696 45.3336 58.6669 44.7363 58.6669 44.0003V41.3336C58.6669 40.5976 58.0696 40.0003 57.3336 40.0003H52.0003C51.2643 40.0003 50.6669 40.5976 50.6669 41.3336V44.0003C50.6669 44.7363 51.2643 45.3336 52.0003 45.3336ZM42.6669 6.66699H48.0003C48.7363 6.66699 49.3336 7.26432 49.3336 8.00032V10.6669C49.3336 11.4029 48.7363 12.0003 48.0003 12.0003H42.6669C41.9309 12.0003 41.3336 11.4029 41.3336 10.6669V8.00032C41.3336 7.26432 41.9309 6.66699 42.6669 6.66699ZM52.0003 16.0003H57.3336C58.0696 16.0003 58.6669 16.5976 58.6669 17.3336V20.0003C58.6669 20.7363 58.0696 21.3336 57.3336 21.3336H52.0003C51.2643 21.3336 50.6669 20.7363 50.6669 20.0003V17.3336C50.6669 16.5976 51.2643 16.0003 52.0003 16.0003ZM21.3336 6.66699H16.0003C15.2643 6.66699 14.6669 7.26432 14.6669 8.00032V10.6669C14.6669 11.4029 15.2643 12.0003 16.0003 12.0003H21.3336C22.0696 12.0003 22.6669 11.4029 22.6669 10.6669V8.00032C22.6669 7.26432 22.0696 6.66699 21.3336 6.66699ZM12.0003 16.0003H6.66699C5.93099 16.0003 5.33365 16.5976 5.33365 17.3336V20.0003C5.33365 20.7363 5.93099 21.3336 6.66699 21.3336H12.0003C12.7363 21.3336 13.3336 20.7363 13.3336 20.0003V17.3336C13.3336 16.5976 12.7363 16.0003 12.0003 16.0003Z" fill="#ED5722"/>
<path d="M34.6668 4H29.3335V5.33333H34.6668V4Z" fill="white"/>
<path d="M21.3333 8H16V9.33333H21.3333V8Z" fill="white"/>
<path d="M12.0003 17.333H6.66699V18.6663H12.0003V17.333Z" fill="white"/>
<path d="M9.33333 29.333H4V30.6663H9.33333V29.333Z" fill="white"/>
<path d="M12.0003 41.333H6.66699V42.6663H12.0003V41.333Z" fill="white"/>
<path d="M21.3333 50.667H16V52.0004H21.3333V50.667Z" fill="white"/>
<path d="M34.6668 54.667H29.3335V56.0004H34.6668V54.667Z" fill="white"/>
<path d="M47.9999 50.667H42.6665V52.0004H47.9999V50.667Z" fill="white"/>
<path d="M57.3333 41.333H52V42.6663H57.3333V41.333Z" fill="white"/>
<path d="M59.9999 29.333H54.6665V30.6663H59.9999V29.333Z" fill="white"/>
<path d="M57.3333 17.333H52V18.6663H57.3333V17.333Z" fill="white"/>
<path d="M47.9999 8H42.6665V9.33333H47.9999V8Z" fill="white"/>
<path d="M49.3334 59.9996H43.1507C42.4134 59.9996 41.8174 59.4023 41.8174 58.6663C41.8174 57.9303 42.4134 57.333 43.1507 57.333H49.3334C50.0707 57.333 50.6667 57.9303 50.6667 58.6663C50.6667 59.4023 50.0707 59.9996 49.3334 59.9996ZM21.3334 59.9996H15.1507C14.4134 59.9996 13.8174 59.4023 13.8174 58.6663C13.8174 57.9303 14.4134 57.333 15.1507 57.333H21.3334C22.0707 57.333 22.6667 57.9303 22.6667 58.6663C22.6667 59.4023 22.0707 59.9996 21.3334 59.9996Z" fill="#FFF5E3"/>
</svg>
