<svg width="64" height="64" viewBox="0 0 64 64" fill="none" xmlns="http://www.w3.org/2000/svg">
<g clip-path="url(#clip0_1_3331)">
<path d="M63.5 0.5H0.5V63.5H63.5V0.5Z" stroke="#ED5722" stroke-opacity="0.01"/>
<path fill-rule="evenodd" clip-rule="evenodd" d="M22.9481 40.148C22.9441 33.4493 17.8001 29.336 13.3348 29.3333C8.86809 29.3307 3.71475 33.452 3.71875 40.1507C3.72009 42.932 5.10542 46.5547 6.81342 49.8827C9.28009 54.688 12.3641 58.888 12.3641 58.888C12.5894 59.1973 12.9494 59.3787 13.3321 59.3787C13.7148 59.3787 14.0748 59.1973 14.3014 58.888C14.3014 58.888 17.3868 54.688 19.8548 49.8827C21.5654 46.5533 22.9494 42.9307 22.9481 40.148ZM17.3294 38.8453C17.3321 38.7853 17.3334 38.7267 17.3334 38.6667C17.3334 36.4587 15.5414 34.6667 13.3334 34.6667C11.1254 34.6667 9.33342 36.4587 9.33342 38.6667C9.33342 38.7267 9.33475 38.7853 9.33742 38.8453C9.33475 38.904 9.33342 38.9627 9.33342 39.0227C9.33342 41.2307 11.1254 43.0227 13.3334 43.0227C15.5414 43.0227 17.3334 41.2307 17.3334 39.0227C17.3334 38.9627 17.3321 38.904 17.3294 38.8453ZM60.2814 14.8147C60.2774 8.116 55.1334 4.00267 50.6681 4C46.2014 3.99733 41.0481 8.11867 41.0521 14.8173C41.0534 17.5987 42.4388 21.2213 44.1468 24.5493C46.6134 29.3547 49.6974 33.5547 49.6974 33.5547C49.9228 33.864 50.2828 34.0453 50.6654 34.0453C51.0481 34.0453 51.4081 33.864 51.6348 33.5547C51.6348 33.5547 54.7201 29.3547 57.1881 24.5493C58.8988 21.22 60.2828 17.5973 60.2814 14.8147ZM54.6628 13.512C54.6654 13.452 54.6668 13.3933 54.6668 13.3333C54.6668 11.1253 52.8748 9.33333 50.6668 9.33333C48.4588 9.33333 46.6668 11.1253 46.6668 13.3333C46.6668 13.3933 46.6681 13.452 46.6708 13.512C46.6681 13.5707 46.6668 13.6293 46.6668 13.6893C46.6668 15.8973 48.4588 17.6893 50.6668 17.6893C52.8748 17.6893 54.6668 15.8973 54.6668 13.6893C54.6668 13.6293 54.6654 13.5707 54.6628 13.512Z" fill="#ED5722"/>
<path fill-rule="evenodd" clip-rule="evenodd" d="M48.1652 33.4043C46.9172 31.5469 45.0559 28.6243 43.4346 25.4656C41.5386 21.7723 40.0012 17.7536 39.9999 14.6683C39.9959 7.23499 45.7119 2.66432 50.6679 2.66699C55.6212 2.66966 61.3292 7.23499 61.3332 14.6656C61.3346 17.7523 59.7999 21.771 57.9025 25.4656C55.1652 30.7963 51.7412 35.4563 51.7412 35.4563C51.6359 35.5989 51.5066 35.7163 51.3599 35.8056L51.3359 35.8203C51.1545 35.9256 50.9479 35.9896 50.7265 35.9989L50.7012 36.0003H50.6665C45.3585 36.0003 42.1799 36.8549 40.2399 38.3563C38.9079 39.3869 38.2212 40.719 37.7866 42.1843C37.2892 43.8589 37.1079 45.7003 36.8172 47.5416C36.3799 50.3083 35.6999 53.0589 33.7612 55.3829C30.9492 58.7509 25.3639 61.3336 13.3332 61.3336L13.2906 61.3323H13.2719C13.0519 61.3216 12.8439 61.259 12.6639 61.1536L12.6412 61.1403C12.4932 61.0496 12.3626 60.9323 12.2586 60.7896C12.2586 60.7896 8.83851 56.1296 6.10118 50.7989C4.20518 47.1056 2.66784 43.087 2.66651 40.0016C2.66251 32.5683 8.37851 27.9976 13.3346 28.0003C18.2879 28.0029 23.9959 32.5683 23.9999 39.9989C24.0012 43.0856 22.4666 47.1043 20.5692 50.7989C18.9799 53.8949 17.1586 56.7643 15.9106 58.6256C24.9346 58.3296 29.4066 56.4376 31.7132 53.6736C34.2239 50.667 34.1199 46.7723 34.7759 43.3349C35.3012 40.5803 36.2346 38.0829 38.6079 36.2469C40.5359 34.7549 43.4879 33.6816 48.1652 33.4043ZM13.3332 57.6763C14.5239 55.9323 16.4972 52.891 18.1972 49.5803C19.8839 46.295 21.3346 42.7469 21.3332 40.0016C21.3292 34.3096 17.1265 30.6696 13.3319 30.6669C9.53851 30.6643 5.32918 34.3096 5.33318 39.9989C5.33451 42.7456 6.78518 46.2936 8.47318 49.5803C10.1719 52.8896 12.1439 55.9309 13.3332 57.6763ZM46.6665 47.4483L48.3905 45.7243C48.9105 45.2043 49.7559 45.2043 50.2759 45.7243C50.7959 46.2443 50.7959 47.0896 50.2759 47.6096L48.5519 49.3336L50.2759 51.0576C50.7959 51.5776 50.7959 52.423 50.2759 52.9429C49.7559 53.4629 48.9105 53.4629 48.3905 52.9429L46.6665 51.219L44.9426 52.9429C44.4226 53.4629 43.5772 53.4629 43.0572 52.9429C42.5372 52.423 42.5372 51.5776 43.0572 51.0576L44.7812 49.3336L43.0572 47.6096C42.5372 47.0896 42.5372 46.2443 43.0572 45.7243C43.5772 45.2043 44.4226 45.2043 44.9426 45.7243L46.6665 47.4483ZM13.3332 33.3336C10.3892 33.3336 7.99984 35.7229 7.99984 38.6669C7.99984 41.6109 10.3892 44.0003 13.3332 44.0003C16.2772 44.0003 18.6666 41.6109 18.6666 38.6669C18.6666 35.7229 16.2772 33.3336 13.3332 33.3336ZM13.3332 36.0003C14.8052 36.0003 15.9999 37.1949 15.9999 38.6669C15.9999 40.1389 14.8052 41.3336 13.3332 41.3336C11.8612 41.3336 10.6665 40.1389 10.6665 38.6669C10.6665 37.1949 11.8612 36.0003 13.3332 36.0003ZM31.9999 27.4483L33.7239 25.7243C34.2439 25.2043 35.0892 25.2043 35.6092 25.7243C36.1292 26.2443 36.1292 27.0896 35.6092 27.6096L33.8852 29.3336L35.6092 31.0576C36.1292 31.5776 36.1292 32.423 35.6092 32.9429C35.0892 33.4629 34.2439 33.4629 33.7239 32.9429L31.9999 31.2189L30.2759 32.9429C29.7559 33.4629 28.9105 33.4629 28.3906 32.9429C27.8706 32.423 27.8706 31.5776 28.3906 31.0576L30.1146 29.3336L28.3906 27.6096C27.8706 27.0896 27.8706 26.2443 28.3906 25.7243C28.9105 25.2043 29.7559 25.2043 30.2759 25.7243L31.9999 27.4483ZM50.6665 32.3429C51.8572 30.5989 53.8305 27.5576 55.5305 24.2469C57.2172 20.9616 58.6679 17.4136 58.6665 14.6683C58.6626 8.97632 54.4599 5.33632 50.6652 5.33366C46.8719 5.33099 42.6626 8.97632 42.6666 14.6656C42.6679 17.4123 44.1185 20.9603 45.8065 24.2469C47.5052 27.5563 49.4772 30.5976 50.6665 32.3429ZM50.6665 8.00032C47.7225 8.00032 45.3332 10.3896 45.3332 13.3336C45.3332 16.2776 47.7225 18.6669 50.6665 18.6669C53.6105 18.6669 55.9999 16.2776 55.9999 13.3336C55.9999 10.3896 53.6105 8.00032 50.6665 8.00032ZM50.6665 10.6669C52.1385 10.6669 53.3332 11.8616 53.3332 13.3336C53.3332 14.8056 52.1385 16.0003 50.6665 16.0003C49.1945 16.0003 47.9999 14.8056 47.9999 13.3336C47.9999 11.8616 49.1945 10.6669 50.6665 10.6669Z" fill="#FFF5E3"/>
</g>
<defs>
<clipPath id="clip0_1_3331">
<rect width="64" height="64" fill="white"/>
</clipPath>
</defs>
</svg>
