<svg width="64" height="64" viewBox="0 0 64 64" fill="none" xmlns="http://www.w3.org/2000/svg">
<g clip-path="url(#clip0_1_3355)">
<path d="M63.5 0.5H0.5V63.5H63.5V0.5Z" stroke="#ED5722" stroke-opacity="0.01"/>
<path d="M32 62C48.5685 62 62 48.5685 62 32C62 15.4315 48.5685 2 32 2C15.4315 2 2 15.4315 2 32C2 48.5685 15.4315 62 32 62Z" fill="#ED5722"/>
<path d="M30.0002 51.0004C18.3292 51.0004 8.12125 45.6294 2.53125 37.6084C5.15925 51.4953 17.3492 62.0004 32.0002 62.0004C48.5692 62.0004 62.0002 48.5694 62.0002 32.0004C62.0002 30.4654 61.8842 28.9584 61.6612 27.4854C59.4142 40.7844 46.0982 51.0004 30.0002 51.0004Z" fill="#ED5722"/>
<path d="M32 57C45.8071 57 57 45.8071 57 32C57 18.1929 45.8071 7 32 7C18.1929 7 7 18.1929 7 32C7 45.8071 18.1929 57 32 57Z" fill="#FFF5E3"/>
<path d="M28.3159 28.316L45.9999 18L35.6839 35.684L28.3159 28.316Z" fill="#ED5722"/>
<path d="M28.316 28.3154L18 45.9994L35.684 35.6834L28.316 28.3154Z" fill="#792D12"/>
<path d="M31 15H33V17H31V15ZM31 47H33V49H31V47ZM15 31H17V33H15V31ZM47 31H49V33H47V31Z" fill="#792D12"/>
<path d="M32 34C33.1046 34 34 33.1046 34 32C34 30.8954 33.1046 30 32 30C30.8954 30 30 30.8954 30 32C30 33.1046 30.8954 34 32 34Z" fill="white"/>
</g>
<defs>
<clipPath id="clip0_1_3355">
<rect width="64" height="64" fill="white"/>
</clipPath>
</defs>
</svg>
