<svg width="64" height="64" viewBox="0 0 64 64" fill="none" xmlns="http://www.w3.org/2000/svg">
<path fill-rule="evenodd" clip-rule="evenodd" d="M30.5 2V54C30.5 54.828 31.172 55.5 32 55.5C32.828 55.5 33.5 54.828 33.5 54V2C33.5 1.172 32.828 0.5 32 0.5C31.172 0.5 30.5 1.172 30.5 2Z" fill="#ED5722"/>
<path fill-rule="evenodd" clip-rule="evenodd" d="M58.772 15.2864C59.224 15.0152 59.5 14.528 59.5 14C59.5 13.472 59.224 12.9848 58.772 12.7136L48.772 6.71361C48.538 6.57441 48.272 6.5 48 6.5H32C31.172 6.5 30.5 7.172 30.5 8V20C30.5 20.828 31.172 21.5 32 21.5H48C48.272 21.5 48.538 21.4256 48.772 21.2864L58.772 15.2864Z" fill="#FFF5E3"/>
<path fill-rule="evenodd" clip-rule="evenodd" d="M5.228 32.7136C4.776 32.9848 4.5 33.472 4.5 34C4.5 34.528 4.776 35.0152 5.228 35.2864L15.228 41.2864C15.462 41.4256 15.728 41.5 16 41.5H32C32.828 41.5 33.5 40.828 33.5 40V28C33.5 27.172 32.828 26.5 32 26.5H16C15.728 26.5 15.462 26.5744 15.228 26.7136L5.228 32.7136Z" fill="#FFF5E3"/>
<path fill-rule="evenodd" clip-rule="evenodd" d="M51 63.501C52.1935 63.501 53.3375 63.0264 54.1817 62.1824C55.026 61.3397 55.499 60.1943 55.499 59.001C55.499 58.3477 55.499 57.6543 55.499 57.001C55.499 55.8077 55.026 54.6623 54.1817 53.8196C53.3375 52.9756 52.1935 52.501 51 52.501C42.9672 52.501 21.0332 52.501 13.0005 52.501C11.807 52.501 10.663 52.9756 9.81872 53.8196C8.97447 54.6623 8.50146 55.8077 8.50146 57.001C8.50146 57.6543 8.50146 58.3477 8.50146 59.001C8.50146 60.1943 8.97447 61.3397 9.81872 62.1824C10.663 63.0264 11.807 63.501 13.0005 63.501C21.0332 63.501 42.9672 63.501 51 63.501Z" fill="#FFF5E3"/>
</svg>
