<svg width="64" height="64" viewBox="0 0 64 64" fill="none" xmlns="http://www.w3.org/2000/svg">
<g clip-path="url(#clip0_1_3240)">
<mask id="mask0_1_3240" style="mask-type:luminance" maskUnits="userSpaceOnUse" x="0" y="0" width="64" height="64">
<path d="M64 0H0V64H64V0Z" fill="white"/>
</mask>
<g mask="url(#mask0_1_3240)">
<path d="M40.6611 55.741H53.3699C54.6852 55.741 55.7491 54.6731 55.7443 53.3578L55.66 30.5208C55.6568 29.6439 55.1189 28.4623 54.4608 27.8838L33.7135 9.65419C32.7252 8.78604 31.1186 8.78285 30.1263 9.64702L9.19203 27.8885C8.53077 28.4647 7.99683 29.6439 8.00001 30.5208L8.08436 53.3578C8.08914 54.6731 9.161 55.741 10.4764 55.741H23.1859C24.5012 55.741 25.5683 54.6731 25.5683 53.3578V43.0315C25.5683 42.1545 26.2805 41.4432 27.1574 41.4432H36.6896C37.5657 41.4432 38.2779 42.1545 38.2779 43.0315V53.3578C38.2779 54.6731 39.3458 55.741 40.6611 55.741Z" fill="#FFF5E3"/>
</g>
</g>
<defs>
<clipPath id="clip0_1_3240">
<rect width="64" height="64" fill="white"/>
</clipPath>
</defs>
</svg>
