<svg width="177" height="103" viewBox="0 0 177 103" fill="none" xmlns="http://www.w3.org/2000/svg">
<path d="M25.4977 17H157.503C163.826 17 169.001 21.7418 169 27.5356V74.4644C169 80.2592 163.826 85 157.502 85H122.385H96.0508H25.4977C19.1742 85 14 80.2592 14 74.4644V27.5356C14 21.7418 19.1742 17 25.4977 17Z" fill="#DC581A"/>
<path d="M68.578 64.069C68.578 69.913 63.797 74.694 57.954 74.694H10.625C4.781 74.694 0 69.913 0 64.069V16.742C0 10.898 4.781 6.117 10.625 6.117H57.953C63.796 6.117 68.577 10.898 68.577 16.742V64.069H68.578Z" fill="#FFF5E3"/>
<path d="M57.954 6.117H10.625C4.781 6.117 0 10.898 0 16.742V28.332H68.577V16.742C68.578 10.898 63.796 6.117 57.954 6.117Z" fill="#6A302F"/>
<path d="M13.0401 0H7.24609V11.913H13.0401V0Z" fill="#FFF5E3"/>
<path d="M22.6993 0H16.9043V11.913H22.6993V0Z" fill="#FFF5E3"/>
<path d="M32.358 0H26.562V11.913H32.358V0Z" fill="#FFF5E3"/>
<path d="M42.0162 0H36.2202V11.913H42.0162V0Z" fill="#FFF5E3"/>
<path d="M51.6749 0H45.8789V11.913H51.6749V0Z" fill="#FFF5E3"/>
<path d="M61.3341 0H55.5391V11.913H61.3341V0Z" fill="#FFF5E3"/>
<path d="M20.558 63.6108C17.486 63.6108 15.11 62.6388 13.43 60.6948C11.75 58.7268 10.91 55.9308 10.91 52.3068C10.91 49.7148 11.39 47.5428 12.35 45.7908C13.31 44.0148 14.594 42.7068 16.202 41.8668C17.81 41.0028 19.586 40.5708 21.53 40.5708C24.602 40.5708 26.954 41.5308 28.586 43.4508C30.242 45.3468 31.07 48.1188 31.07 51.7668C31.07 54.3588 30.59 56.5428 29.63 58.3188C28.694 60.0948 27.434 61.4268 25.85 62.3148C24.266 63.1788 22.502 63.6108 20.558 63.6108ZM21.026 61.2708C22.298 61.2708 23.246 60.5268 23.87 59.0388C24.494 57.5508 24.806 55.2828 24.806 52.2348C24.806 49.9548 24.674 48.1428 24.41 46.7988C24.17 45.4548 23.774 44.4828 23.222 43.8828C22.67 43.2588 21.926 42.9468 20.99 42.9468C18.446 42.9468 17.174 45.9108 17.174 51.8388C17.174 55.1748 17.474 57.5868 18.074 59.0748C18.674 60.5388 19.658 61.2708 21.026 61.2708ZM35.6065 61.0548C38.8945 59.0628 41.5345 56.9628 43.5265 54.7548C45.5425 52.5228 46.5505 50.3148 46.5505 48.1308C46.5505 47.0508 46.1905 46.1868 45.4705 45.5388C44.7745 44.8908 43.8265 44.5668 42.6265 44.5668C41.8105 44.5668 41.0665 44.6868 40.3945 44.9268C39.7465 45.1668 39.2185 45.4308 38.8105 45.7188C38.4265 45.9828 37.9345 46.3668 37.3345 46.8708L35.8585 44.6748C36.3145 44.0748 37.0105 43.4628 37.9465 42.8388C38.8825 42.1908 39.9505 41.6508 41.1505 41.2188C42.3745 40.7868 43.6105 40.5708 44.8585 40.5708C46.6585 40.5708 48.1705 40.8708 49.3945 41.4708C50.6185 42.0468 51.5185 42.8268 52.0945 43.8108C52.6945 44.7948 52.9945 45.8868 52.9945 47.0868C52.9945 49.3428 51.9145 51.5748 49.7545 53.7828C47.6185 55.9908 44.8225 58.0668 41.3665 60.0108L51.3745 58.9668L52.8145 55.9788L55.2985 56.5188L54.2185 63.2508H36.4705L35.6065 61.0548Z" fill="black"/>
<path d="M83.2101 44.1229C83.5321 44.1089 83.7981 44.0669 84.0081 43.9969C84.2321 43.9269 84.4001 43.7659 84.5121 43.5139C84.6381 43.262 84.7011 42.856 84.7011 42.296V34.2531C84.7011 33.8751 84.7081 33.5111 84.7221 33.1611C84.7501 32.8112 84.7711 32.5452 84.7851 32.3632C84.5611 32.3772 84.2811 32.3912 83.9451 32.4052C83.6091 32.4052 83.3641 32.4122 83.2101 32.4262V30.8092L89.321 30.7882C90.707 30.7882 91.904 30.9982 92.912 31.4182C93.9339 31.8242 94.7669 32.3772 95.4109 33.0771C96.0689 33.7771 96.5589 34.5611 96.8809 35.4291C97.2029 36.2831 97.3639 37.1441 97.3639 38.0121C97.3639 38.866 97.2099 39.734 96.9019 40.616C96.6079 41.498 96.1389 42.31 95.4949 43.052C94.8509 43.7799 94.0109 44.3749 92.975 44.8369C91.939 45.2849 90.686 45.5089 89.216 45.5089H83.2101V44.1229ZM87.746 42.065C87.746 42.443 87.739 42.807 87.7251 43.157C87.7111 43.5069 87.6901 43.7729 87.6621 43.9549C87.802 43.9409 87.991 43.9409 88.229 43.9549C88.481 43.9549 88.74 43.9619 89.006 43.9759C89.272 43.9759 89.489 43.9759 89.657 43.9759C90.427 43.9759 91.085 43.8219 91.631 43.5139C92.191 43.206 92.646 42.793 92.996 42.275C93.3599 41.743 93.6259 41.148 93.7939 40.49C93.9619 39.832 94.0459 39.153 94.0459 38.453C94.0459 37.0251 93.8499 35.8561 93.4579 34.9461C93.0659 34.0361 92.513 33.3571 91.799 32.9092C91.099 32.4612 90.259 32.2232 89.279 32.1952C88.943 32.1812 88.656 32.2162 88.418 32.3002C88.194 32.3702 88.026 32.5312 87.914 32.7832C87.802 33.0351 87.746 33.4341 87.746 33.9801V42.065ZM97.6042 45.5089V44.0599C97.9962 44.0599 98.3112 43.9479 98.5492 43.7239C98.7872 43.4999 98.9832 43.206 99.1372 42.842C99.3052 42.478 99.4662 42.086 99.6202 41.666L103.715 30.4312H105.185L109.658 41.876C109.742 42.086 109.854 42.408 109.994 42.842C110.134 43.262 110.218 43.6329 110.246 43.9549C110.484 43.9269 110.708 43.9129 110.918 43.9129C111.142 43.8989 111.324 43.8919 111.464 43.8919V45.5089H105.815V44.1229C106.207 44.1229 106.473 44.0459 106.613 43.8919C106.767 43.7239 106.837 43.4999 106.823 43.22C106.809 42.94 106.732 42.625 106.592 42.275L106.172 41.12L101.615 41.204L101.279 42.191C101.209 42.373 101.104 42.646 100.964 43.01C100.838 43.36 100.719 43.6539 100.607 43.8919C100.831 43.8639 101.097 43.8499 101.405 43.8499C101.727 43.8359 101.958 43.8289 102.098 43.8289V45.5089H97.6042ZM102.14 39.629H105.647L104.681 37.0041C104.499 36.5001 104.338 35.9961 104.198 35.4921C104.058 34.9741 103.953 34.5191 103.883 34.1271H103.862C103.806 34.3651 103.722 34.7221 103.61 35.1981C103.498 35.6741 103.323 36.2411 103.085 36.8991L102.14 39.629ZM114.375 45.5089V44.1229C114.697 44.1089 114.963 44.0669 115.173 43.9969C115.397 43.9269 115.565 43.7659 115.677 43.5139C115.803 43.262 115.866 42.856 115.866 42.296V40.469L112.002 34.3581C111.806 34.0361 111.624 33.6791 111.456 33.2871C111.288 32.8952 111.204 32.5872 111.204 32.3632C110.98 32.3772 110.791 32.3912 110.637 32.4052C110.483 32.4052 110.329 32.4122 110.175 32.4262V30.8092H116.37V32.1952C115.964 32.1672 115.628 32.2092 115.362 32.3212C115.096 32.4332 114.935 32.6152 114.879 32.8672C114.823 33.1051 114.907 33.4201 115.131 33.8121L116.727 36.4371C116.797 36.5491 116.902 36.7311 117.042 36.9831C117.182 37.2211 117.322 37.4801 117.462 37.7601C117.616 38.0261 117.728 38.264 117.798 38.474H117.819C117.889 38.306 118.008 38.0541 118.176 37.7181C118.344 37.3821 118.554 36.9481 118.806 36.4161L119.898 34.2741C119.968 34.1201 120.066 33.9241 120.192 33.6861C120.318 33.4341 120.451 33.1891 120.591 32.9511C120.745 32.6992 120.885 32.4962 121.011 32.3422C120.787 32.3562 120.5 32.3702 120.15 32.3842C119.8 32.3982 119.548 32.4122 119.394 32.4262V30.8092H124.035V32.1952C123.545 32.2652 123.125 32.4682 122.775 32.8042C122.425 33.1261 122.047 33.6721 121.641 34.4421C121.193 35.3101 120.738 36.1851 120.276 37.0671C119.814 37.9491 119.359 38.824 118.911 39.692C118.911 39.888 118.911 40.084 118.911 40.28C118.911 40.476 118.911 40.679 118.911 40.889C118.911 41.085 118.911 41.281 118.911 41.477C118.911 41.673 118.911 41.869 118.911 42.065C118.911 42.443 118.904 42.807 118.89 43.157C118.876 43.5069 118.855 43.7729 118.827 43.9549C119.065 43.9269 119.366 43.9129 119.73 43.9129C120.108 43.8989 120.367 43.8919 120.507 43.8919V45.5089H114.375ZM133.509 35.5131C133.383 34.7291 133.159 34.0781 132.837 33.5601C132.515 33.0281 132.102 32.6292 131.598 32.3632C131.108 32.0972 130.534 31.9712 129.876 31.9852C129.274 31.9852 128.742 32.1532 128.28 32.4892C127.832 32.8252 127.608 33.2591 127.608 33.7911C127.608 34.2251 127.727 34.6031 127.965 34.9251C128.217 35.2471 128.595 35.5481 129.099 35.8281C129.603 36.1081 130.24 36.4091 131.01 36.7311C131.542 36.9411 132.088 37.1861 132.648 37.4661C133.208 37.7461 133.726 38.0821 134.202 38.474C134.678 38.852 135.063 39.3 135.357 39.818C135.651 40.322 135.798 40.917 135.798 41.603C135.798 42.429 135.574 43.164 135.126 43.8079C134.678 44.4519 134.048 44.9559 133.236 45.3199C132.438 45.6699 131.5 45.8449 130.422 45.8449C129.862 45.8449 129.253 45.7539 128.595 45.5719C127.951 45.4039 127.342 45.1519 126.768 44.8159L126.831 45.6979H125.214V40.784H126.6C126.796 41.96 127.244 42.849 127.944 43.451C128.658 44.0389 129.505 44.3329 130.485 44.3329C130.989 44.3329 131.43 44.2419 131.808 44.0599C132.186 43.8779 132.48 43.6399 132.69 43.346C132.9 43.038 133.005 42.709 133.005 42.359C133.005 41.869 132.83 41.463 132.48 41.141C132.144 40.819 131.717 40.546 131.199 40.322C130.695 40.098 130.177 39.881 129.645 39.671C128.973 39.391 128.343 39.097 127.755 38.789C127.181 38.467 126.677 38.1031 126.243 37.6971C125.809 37.2911 125.473 36.8291 125.235 36.3111C124.997 35.7791 124.878 35.1701 124.878 34.4841C124.878 34.0501 124.962 33.6021 125.13 33.1401C125.298 32.6642 125.571 32.2302 125.949 31.8382C126.327 31.4322 126.831 31.1032 127.461 30.8512C128.091 30.5992 128.868 30.4732 129.792 30.4732C130.352 30.4732 130.961 30.5572 131.619 30.7252C132.291 30.8932 132.865 31.1452 133.341 31.4812L133.257 30.6202H134.895V35.5131H133.509Z" fill="#FFF5E3"/>
<path d="M93.9068 61.0462C93.9068 60.2902 93.8018 59.6672 93.5918 59.1772C93.3818 58.6732 93.0808 58.3022 92.6888 58.0642C92.3108 57.8123 91.8558 57.6933 91.3238 57.7073H90.3158V67.5561C90.3158 67.9341 90.3088 68.2981 90.2948 68.648C90.2808 68.998 90.2598 69.264 90.2318 69.446C90.4698 69.418 90.7708 69.404 91.1348 69.404C91.5128 69.39 91.7718 69.383 91.9118 69.383V71H85.7799V69.614C86.1019 69.6 86.3679 69.558 86.5779 69.488C86.8019 69.418 86.9699 69.257 87.0819 69.005C87.2079 68.753 87.2709 68.3471 87.2709 67.7871V57.7283H86.3049C85.5069 57.7423 84.8769 58.0152 84.415 58.5472C83.953 59.0792 83.722 59.9122 83.722 61.0462H82.336L82.441 56.3003H95.1667L95.2927 61.0462H93.9068ZM103.701 71.336C102.371 71.336 101.237 71.112 100.299 70.664C99.3749 70.216 98.6259 69.621 98.0519 68.879C97.4779 68.1231 97.0579 67.2901 96.7919 66.3801C96.5259 65.4701 96.3929 64.5601 96.3929 63.6501C96.3929 62.7682 96.5399 61.8792 96.8339 60.9832C97.1419 60.0732 97.5969 59.2402 98.1989 58.4842C98.8149 57.7283 99.5849 57.1193 100.509 56.6573C101.433 56.1953 102.518 55.9643 103.764 55.9643C105.038 55.9643 106.137 56.1953 107.061 56.6573C107.985 57.1193 108.741 57.7353 109.329 58.5052C109.917 59.2612 110.351 60.0872 110.631 60.9832C110.925 61.8792 111.072 62.7682 111.072 63.6501C111.072 64.5181 110.918 65.4001 110.61 66.2961C110.316 67.1921 109.861 68.0251 109.245 68.795C108.643 69.551 107.88 70.167 106.956 70.643C106.032 71.105 104.947 71.336 103.701 71.336ZM103.932 69.803C104.66 69.803 105.269 69.628 105.759 69.278C106.249 68.914 106.641 68.445 106.935 67.8711C107.229 67.2971 107.439 66.6741 107.565 66.0021C107.691 65.3161 107.754 64.6511 107.754 64.0071C107.754 63.0412 107.67 62.1592 107.502 61.3612C107.334 60.5632 107.075 59.8772 106.725 59.3032C106.375 58.7152 105.927 58.2672 105.381 57.9592C104.849 57.6373 104.219 57.4833 103.491 57.4973C102.777 57.5113 102.175 57.7073 101.685 58.0852C101.195 58.4492 100.803 58.9252 100.509 59.5132C100.215 60.0872 100.005 60.7172 99.8789 61.4032C99.7529 62.0892 99.6899 62.7542 99.6899 63.3981C99.6899 64.0561 99.7599 64.7561 99.8999 65.4981C100.054 66.2401 100.292 66.9401 100.614 67.5981C100.936 68.2561 101.37 68.788 101.916 69.194C102.462 69.6 103.134 69.803 103.932 69.803ZM125.21 71.336C123.698 71.336 122.41 71.007 121.346 70.349C120.282 69.677 119.47 68.774 118.91 67.6401C118.35 66.5061 118.07 65.2461 118.07 63.8601C118.07 62.9082 118.217 61.9632 118.511 61.0252C118.819 60.0872 119.274 59.2402 119.876 58.4842C120.478 57.7143 121.234 57.1053 122.144 56.6573C123.068 56.1953 124.139 55.9643 125.357 55.9643C125.735 55.9643 126.162 56.0063 126.638 56.0903C127.114 56.1603 127.59 56.2723 128.066 56.4263C128.556 56.5803 128.99 56.7693 129.368 56.9933L129.284 56.1113H130.901V61.0042H129.536C129.41 60.2202 129.165 59.5692 128.801 59.0512C128.437 58.5332 127.982 58.1412 127.436 57.8753C126.89 57.6093 126.288 57.4763 125.63 57.4763C124.902 57.4763 124.265 57.6443 123.719 57.9802C123.187 58.3162 122.746 58.7642 122.396 59.3242C122.046 59.8842 121.78 60.5212 121.598 61.2352C121.43 61.9492 121.346 62.6842 121.346 63.4401C121.346 64.6441 121.514 65.7151 121.85 66.6531C122.186 67.5911 122.676 68.3331 123.32 68.879C123.978 69.411 124.783 69.677 125.735 69.677C126.001 69.677 126.316 69.656 126.68 69.614C127.044 69.572 127.408 69.509 127.772 69.425C128.136 69.341 128.444 69.236 128.696 69.11V67.1571C128.696 66.7791 128.703 66.4151 128.717 66.0651C128.745 65.7151 128.766 65.4491 128.78 65.2671C128.556 65.2811 128.276 65.2951 127.94 65.3091C127.604 65.3091 127.359 65.3161 127.205 65.3301V63.7131H132.79V65.0991C132.552 65.1131 132.342 65.1411 132.16 65.1831C131.993 65.2251 131.846 65.3091 131.72 65.4351C131.608 65.5471 131.524 65.7221 131.468 65.9601C131.412 66.1981 131.384 66.5201 131.384 66.9261V70.286H130.88C130.474 70.286 130.068 70.342 129.662 70.454C129.256 70.566 128.822 70.692 128.36 70.832C127.926 70.958 127.45 71.07 126.932 71.168C126.414 71.28 125.84 71.336 125.21 71.336ZM141.188 71.336C139.858 71.336 138.724 71.112 137.786 70.664C136.862 70.216 136.113 69.621 135.539 68.879C134.965 68.1231 134.545 67.2901 134.279 66.3801C134.013 65.4701 133.88 64.5601 133.88 63.6501C133.88 62.7682 134.027 61.8792 134.321 60.9832C134.629 60.0732 135.084 59.2402 135.686 58.4842C136.302 57.7283 137.072 57.1193 137.996 56.6573C138.92 56.1953 140.005 55.9643 141.251 55.9643C142.525 55.9643 143.624 56.1953 144.548 56.6573C145.472 57.1193 146.228 57.7353 146.816 58.5052C147.404 59.2612 147.838 60.0872 148.118 60.9832C148.412 61.8792 148.559 62.7682 148.559 63.6501C148.559 64.5181 148.405 65.4001 148.097 66.2961C147.803 67.1921 147.348 68.0251 146.732 68.795C146.13 69.551 145.367 70.167 144.443 70.643C143.519 71.105 142.434 71.336 141.188 71.336ZM141.419 69.803C142.147 69.803 142.756 69.628 143.246 69.278C143.736 68.914 144.128 68.445 144.422 67.8711C144.716 67.2971 144.926 66.6741 145.052 66.0021C145.178 65.3161 145.241 64.6511 145.241 64.0071C145.241 63.0412 145.157 62.1592 144.989 61.3612C144.821 60.5632 144.562 59.8772 144.212 59.3032C143.862 58.7152 143.414 58.2672 142.868 57.9592C142.336 57.6373 141.706 57.4833 140.978 57.4973C140.264 57.5113 139.662 57.7073 139.172 58.0852C138.682 58.4492 138.29 58.9252 137.996 59.5132C137.702 60.0872 137.492 60.7172 137.366 61.4032C137.24 62.0892 137.177 62.7542 137.177 63.3981C137.177 64.0561 137.247 64.7561 137.387 65.4981C137.541 66.2401 137.779 66.9401 138.101 67.5981C138.423 68.2561 138.857 68.788 139.403 69.194C139.949 69.6 140.621 69.803 141.419 69.803Z" fill="#FFF5E3"/>
</svg>
