<svg width="99" height="96" viewBox="0 0 99 96" fill="none" xmlns="http://www.w3.org/2000/svg">
<g filter="url(#filter0_d_1_3526)">
<path d="M50.5716 17.1426H48.0002C30.9583 17.1426 17.1431 30.9578 17.1431 47.9997C17.1431 65.0416 30.9583 78.8569 48.0002 78.8569H50.5716C67.6136 78.8569 81.4288 65.0416 81.4288 47.9997C81.4288 30.9578 67.6136 17.1426 50.5716 17.1426Z" fill="#ED5722"/>
<path d="M39.854 43.7108C39.854 43.0007 40.4296 42.425 41.1397 42.425H47.9968C48.7069 42.425 49.2825 43.0007 49.2825 43.7108C49.2825 44.4207 48.7069 44.9965 47.9968 44.9965H41.1397C40.4296 44.9965 39.854 44.4207 39.854 43.7108Z" fill="white"/>
<path d="M39.854 50.5661C39.854 49.856 40.4296 49.2804 41.1397 49.2804H54.8539C55.564 49.2804 56.1396 49.856 56.1396 50.5661C56.1396 51.2762 55.564 51.8518 54.8539 51.8518H41.1397C40.4296 51.8518 39.854 51.2762 39.854 50.5661Z" fill="white"/>
<path fill-rule="evenodd" clip-rule="evenodd" d="M44.5108 32.1396H51.4831C53.8345 32.1396 55.6781 32.1396 57.1599 32.2606C58.6687 32.3839 59.9151 32.6391 61.0433 33.214C62.8982 34.159 64.4061 35.667 65.3511 37.5216C65.9259 38.65 66.1811 39.8964 66.3044 41.4051C66.4254 42.8869 66.4254 44.7305 66.4254 47.0821V49.1697V49.4214C66.4258 52.0762 66.4262 53.6957 66.0272 55.056C65.0826 58.2774 62.5634 60.7968 59.3419 61.7414C57.9816 62.1402 56.3621 62.14 53.7074 62.1396C53.6243 62.1396 53.5405 62.1396 53.4555 62.1396H52.5148L52.4114 62.1397C50.9247 62.1492 49.4766 62.6134 48.2614 63.4697L48.177 63.5297L43.7016 66.7265C41.1224 68.5687 37.7333 65.9083 38.9104 62.9654C39.0686 62.5699 38.7773 62.1396 38.3513 62.1396H37.3197C33.0388 62.1396 29.5684 58.6692 29.5684 54.3882V47.0821C29.5684 44.7305 29.5684 42.8869 29.6893 41.4051C29.8126 39.8964 30.0679 38.65 30.6427 37.5216C31.5877 35.667 33.0957 34.159 34.9504 33.214C36.0787 32.6391 37.3251 32.3839 38.834 32.2606C40.3156 32.1396 42.1592 32.1396 44.5108 32.1396ZM39.0433 34.8236C37.6936 34.9338 36.8231 35.1458 36.1178 35.5051C34.747 36.2037 33.6324 37.3182 32.9338 38.6891C32.5745 39.3944 32.3625 40.2648 32.2523 41.6146C32.1407 42.9794 32.1398 44.7182 32.1398 47.1396V54.3882C32.1398 57.2491 34.459 59.5682 37.3197 59.5682H38.3513C40.5964 59.5682 42.1317 61.8358 41.2979 63.9204C41.0746 64.4787 41.7176 64.9836 42.2069 64.634L46.7801 61.3677C48.4243 60.2091 50.3836 59.5812 52.3949 59.5683L52.5148 59.5682H53.4555C56.4416 59.5682 57.6592 59.5552 58.6183 59.2739C60.9994 58.5756 62.8614 56.7135 63.5597 54.3324C63.841 53.3732 63.854 52.1558 63.854 49.1697V47.1396C63.854 44.7182 63.853 42.9794 63.7416 41.6146C63.6312 40.2648 63.4193 39.3944 63.0599 38.6891C62.3614 37.3182 61.2468 36.2037 59.876 35.5051C59.1706 35.1458 58.3002 34.9338 56.9505 34.8236C55.5857 34.712 53.8469 34.7111 51.4255 34.7111H44.5683C42.1469 34.7111 40.4081 34.712 39.0433 34.8236Z" fill="white"/>
<path d="M63.4286 42.8573C67.6891 42.8573 71.1429 39.4035 71.1429 35.143C71.1429 30.8825 67.6891 27.4287 63.4286 27.4287C59.1682 27.4287 55.7144 30.8825 55.7144 35.143C55.7144 39.4035 59.1682 42.8573 63.4286 42.8573Z" fill="#78B9EB"/>
</g>
<defs>
<filter id="filter0_d_1_3526" x="13.1431" y="13.1426" width="72.2856" height="69.7142" filterUnits="userSpaceOnUse" color-interpolation-filters="sRGB">
<feFlood flood-opacity="0" result="BackgroundImageFix"/>
<feColorMatrix in="SourceAlpha" type="matrix" values="0 0 0 0 0 0 0 0 0 0 0 0 0 0 0 0 0 0 127 0" result="hardAlpha"/>
<feOffset/>
<feGaussianBlur stdDeviation="2"/>
<feComposite in2="hardAlpha" operator="out"/>
<feColorMatrix type="matrix" values="0 0 0 0 0 0 0 0 0 0 0 0 0 0 0 0 0 0 0.25 0"/>
<feBlend mode="normal" in2="BackgroundImageFix" result="effect1_dropShadow_1_3526"/>
<feBlend mode="normal" in="SourceGraphic" in2="effect1_dropShadow_1_3526" result="shape"/>
</filter>
</defs>
</svg>
