<svg width="72" height="72" viewBox="0 0 72 72" fill="none" xmlns="http://www.w3.org/2000/svg">
<circle cx="36" cy="36" r="36" fill="#ED5722"/>
<path d="M36.0013 31.9998C33.7915 31.9998 32.0013 33.7906 32.0013 35.9998C32.0013 38.2096 33.7921 39.9998 36.0013 39.9998C38.2111 39.9998 40.0013 38.209 40.0013 35.9998C40.0013 33.7901 38.2105 31.9998 36.0013 31.9998ZM36.0013 29.3332C39.6819 29.3332 42.668 32.316 42.668 35.9998C42.668 39.6805 39.6852 42.6665 36.0013 42.6665C32.3207 42.6665 29.3346 39.6837 29.3346 35.9998C29.3346 32.3192 32.3174 29.3332 36.0013 29.3332ZM44.668 28.9987C44.668 29.9189 43.9203 30.6654 43.0013 30.6654C42.0812 30.6654 41.3347 29.9177 41.3347 28.9987C41.3347 28.0797 42.0823 27.3332 43.0013 27.3332C43.9191 27.332 44.668 28.0797 44.668 28.9987ZM36.0013 25.3332C32.702 25.3332 32.1642 25.3419 30.6297 25.4102C29.5842 25.4593 28.8834 25.5999 28.2322 25.8527C27.6536 26.0772 27.2361 26.3451 26.7914 26.7899C26.3449 27.2364 26.0774 27.6527 25.8539 28.2316C25.6005 28.8843 25.4599 29.584 25.4117 30.628C25.3427 32.1001 25.3346 32.6146 25.3346 35.9998C25.3346 39.2992 25.3434 39.8369 25.4117 41.3713C25.4608 42.4164 25.6016 43.1182 25.8538 43.7678C26.0788 44.3473 26.3473 44.7657 26.79 45.2084C27.2382 45.656 27.6557 45.9244 28.2292 46.1457C28.8883 46.4005 29.5886 46.5413 30.6295 46.5894C32.1016 46.6584 32.616 46.6665 36.0013 46.6665C39.3007 46.6665 39.8384 46.6577 41.3728 46.5894C42.4156 46.5405 43.118 46.3993 43.7693 46.1473C44.3472 45.9229 44.7669 45.6534 45.2099 45.2112C45.6581 44.7622 45.926 44.3457 46.1476 43.7709C46.4017 43.1142 46.5428 42.4129 46.5909 41.3717C46.6599 39.8996 46.668 39.385 46.668 35.9998C46.668 32.7005 46.6592 32.1628 46.5909 30.6283C46.5419 29.5853 46.4007 28.8818 46.1484 28.2307C45.9245 27.6537 45.6556 27.235 45.2112 26.7899C44.764 26.3427 44.3488 26.0757 43.7695 25.8524C43.1173 25.5992 42.4165 25.4585 41.3731 25.4103C39.9011 25.3412 39.3865 25.3332 36.0013 25.3332ZM36.0013 22.6665C39.6235 22.6665 40.0757 22.6798 41.498 22.7465C42.9168 22.8121 43.8847 23.0365 44.7347 23.3665C45.6135 23.7054 46.3557 24.1632 47.0968 24.9043C47.8368 25.6454 48.2947 26.3898 48.6347 27.2665C48.9635 28.1154 49.188 29.0843 49.2547 30.5032C49.318 31.9254 49.3347 32.3776 49.3347 35.9998C49.3347 39.6221 49.3213 40.0742 49.2547 41.4965C49.1891 42.9154 48.9635 43.8832 48.6347 44.7332C48.2957 45.6121 47.8368 46.3542 47.0968 47.0954C46.3557 47.8354 45.6101 48.2932 44.7347 48.6332C43.8847 48.9621 42.9168 49.1865 41.498 49.2532C40.0757 49.3165 39.6235 49.3332 36.0013 49.3332C32.3791 49.3332 31.9269 49.3198 30.5046 49.2532C29.0858 49.1876 28.1191 48.9621 27.268 48.6332C26.3902 48.2942 25.6469 47.8354 24.9058 47.0954C24.1646 46.3542 23.708 45.6088 23.368 44.7332C23.038 43.8832 22.8146 42.9154 22.748 41.4965C22.6846 40.0742 22.668 39.6221 22.668 35.9998C22.668 32.3776 22.6813 31.9254 22.748 30.5032C22.8135 29.0832 23.038 28.1165 23.368 27.2665C23.7069 26.3887 24.1646 25.6454 24.9058 24.9043C25.6469 24.1632 26.3913 23.7065 27.268 23.3665C28.118 23.0365 29.0846 22.8132 30.5046 22.7465C31.9269 22.6832 32.3791 22.6665 36.0013 22.6665Z" fill="#FFF5E3"/>
</svg>
